<svg width="23" height="23" viewBox="0 0 23 23" fill="none" xmlns="http://www.w3.org/2000/svg">
<rect x="0.869873" y="0.974228" width="21.7244" height="21.7244" rx="10.8622" fill="#3A3A3A" fill-opacity="0.4"/>
<path d="M17.4515 6.33777V7.31932H12.9585V8.17644V8.39764V14.9367H11.894C11.6267 14.3929 11.2535 13.8814 10.7742 13.4021C10.295 12.9229 9.74658 12.522 9.12908 12.1994C8.5208 11.8676 7.88026 11.6602 7.20746 11.5773L6.6683 10.2501C7.56229 9.73401 8.45628 9.27319 9.35027 8.86767C10.2443 8.46215 11.1936 8.10271 12.1981 7.78935L11.894 8.36999V7.31932H6.01855V6.33777H17.4515ZM11.894 8.48058L12.1843 8.8815C11.7143 9.01053 11.2258 9.18103 10.7189 9.39301C10.2212 9.60498 9.73275 9.82618 9.2535 10.0566C8.78347 10.287 8.35029 10.5128 7.95399 10.734C8.47011 10.8354 9.00005 11.0289 9.54382 11.3146C10.0968 11.6003 10.5991 11.9506 11.0507 12.3653C11.5115 12.7708 11.8525 13.2132 12.0737 13.6925L11.9631 13.7201C11.9447 13.5081 11.9263 13.2962 11.9078 13.0842C11.8986 12.8722 11.894 12.6187 11.894 12.3238V8.48058ZM16.6773 10.9552C16.6773 11.2593 16.6174 11.5496 16.4976 11.8261C16.3778 12.0934 16.1796 12.3146 15.9031 12.4897C15.6266 12.6648 15.258 12.7524 14.7972 12.7524C14.6497 12.7524 14.5068 12.7478 14.3686 12.7386C14.2396 12.7293 14.1105 12.7109 13.9815 12.6833L14.0645 11.6879C14.1198 11.6971 14.1843 11.7063 14.258 11.7155C14.341 11.7155 14.4331 11.7155 14.5345 11.7155C14.9769 11.7155 15.2626 11.6326 15.3916 11.4667C15.5299 11.2916 15.599 11.0842 15.599 10.8446C15.599 10.3561 15.3594 9.94138 14.8801 9.60038C14.4101 9.25015 13.7096 9.01053 12.7788 8.8815L12.8202 7.84465C13.5299 7.91838 14.1751 8.0981 14.7557 8.38381C15.3363 8.6603 15.8018 9.01974 16.152 9.46213C16.5022 9.8953 16.6773 10.393 16.6773 10.9552Z" fill="white"/>
</svg>
