<svg width="23" height="22" viewBox="0 0 23 22" fill="none" xmlns="http://www.w3.org/2000/svg">
<rect x="0.869873" y="0.191574" width="21.7244" height="21.7244" rx="10.8622" fill="#3A3A3A"/>
<path d="M9.65 13.9881C9.36429 13.9881 9.05093 13.942 8.70992 13.8499C8.37813 13.7485 8.03252 13.5734 7.67308 13.3245C7.31364 13.0665 6.94959 12.7024 6.58094 12.2324C6.21228 11.7623 5.85284 11.1587 5.50262 10.4214L6.2768 9.93749C6.70075 10.8223 7.14775 11.5043 7.61778 11.9835C8.08782 12.4536 8.62237 12.6886 9.22143 12.6886C9.71912 12.6886 10.1016 12.5457 10.3689 12.26C10.6362 11.9743 10.7698 11.6517 10.7698 11.2923C10.7698 11.0711 10.7145 10.8499 10.6039 10.6287C10.5025 10.4075 10.332 10.2232 10.0924 10.0757C9.86197 9.92827 9.55783 9.85915 9.17996 9.86837L10.3551 9.661L8.37813 10.7393L7.54866 9.38451C7.75142 9.21861 7.9634 9.08958 8.18459 8.99742C8.415 8.89604 8.65002 8.83613 8.88964 8.8177C9.13849 8.79005 9.3735 8.79466 9.5947 8.83152L10.0233 9.03889C10.4933 9.23244 10.8758 9.48128 11.1707 9.78542C11.4656 10.0896 11.6776 10.4121 11.8066 10.7531C11.9449 11.0941 12.014 11.4259 12.014 11.7485C12.014 12.1448 11.9218 12.5135 11.7375 12.8545C11.5532 13.1955 11.2859 13.472 10.9357 13.684C10.5855 13.8867 10.1569 13.9881 9.65 13.9881ZM9.81589 9.81307L8.35049 9.09419C8.82052 8.95595 9.19379 8.78083 9.47028 8.56886C9.75599 8.34766 9.96335 8.12186 10.0924 7.89145C10.2214 7.65183 10.2859 7.43063 10.2859 7.22787C10.2859 7.08041 10.2491 6.94216 10.1753 6.81313C10.1108 6.67489 10.0279 6.57351 9.92649 6.50899C9.58548 6.47213 9.17996 6.56429 8.70992 6.78548C8.2491 6.99746 7.82054 7.29699 7.42424 7.68408L6.58094 6.55047C6.89429 6.23711 7.26295 5.96983 7.6869 5.74864C8.12008 5.51823 8.55785 5.40303 9.00024 5.40303C9.34125 5.40303 9.65921 5.47215 9.95414 5.61039C10.2491 5.73942 10.5117 5.91454 10.7421 6.13573C10.9725 6.34771 11.1477 6.58733 11.2675 6.85461C11.3965 7.11267 11.461 7.37994 11.461 7.65643C11.461 8.02509 11.3274 8.41679 11.0601 8.83152C10.7928 9.24626 10.3781 9.57344 9.81589 9.81307ZM13.4932 10.919C13.1614 11.0849 12.7559 11.108 12.2767 10.9882C11.8066 10.8683 11.2444 10.5734 10.5901 10.1034L10.7145 9.42598C10.9633 9.61031 11.2214 9.74395 11.4887 9.82689C11.7652 9.90063 12.0324 9.92828 12.2905 9.90984C12.5486 9.89141 12.7836 9.83611 12.9955 9.74395C13.2167 9.64257 13.3919 9.51354 13.5209 9.35686L13.4932 10.919ZM14.4333 14.6517L13.355 14.0157V6.26015L13.8527 6.48134L14.8619 7.28317V14.4858L14.4333 14.6517ZM12.1522 6.71636L11.6131 5.91454L11.7928 5.52745H16.037L16.5761 6.3431L16.3964 6.71636H12.1522Z" fill="white"/>
</svg>
