<svg width="23" height="23" viewBox="0 0 23 23" fill="none" xmlns="http://www.w3.org/2000/svg">
<rect x="0.869873" y="0.542419" width="21.7244" height="21.7244" rx="10.8622" fill="#3A3A3A" fill-opacity="0.4"/>
<path d="M14.2409 13.385C13.7709 13.385 13.3884 13.3251 13.0935 13.2053C12.7986 13.0855 12.5497 12.9104 12.347 12.68C12.1442 12.4404 11.9414 12.1546 11.7387 11.8229L12.1673 11.7676C11.9276 12.2099 11.6696 12.5463 11.3931 12.7768C11.1258 13.0072 10.8263 13.1685 10.4945 13.2606C10.1719 13.3436 9.80325 13.385 9.38851 13.385C8.87239 13.385 8.40696 13.2837 7.99222 13.0809C7.5867 12.8781 7.26874 12.5924 7.03833 12.2238C6.80792 11.8551 6.69271 11.4173 6.69271 10.9104C6.69271 10.5049 6.77566 10.1409 6.94155 9.81829C7.10745 9.4865 7.34708 9.22384 7.66043 9.03029C7.97379 8.83675 8.35166 8.73997 8.79405 8.73997C9.28252 8.73997 9.67422 8.85518 9.96914 9.08559C10.2641 9.316 10.4115 9.62936 10.4115 10.0257C10.4115 10.1731 10.3977 10.3206 10.3701 10.468C10.3424 10.6155 10.2963 10.7399 10.2318 10.8413L9.29174 10.7584C9.31017 10.6846 9.3286 10.6109 9.34703 10.5372C9.36547 10.4542 9.37468 10.3805 9.37468 10.316C9.37468 10.1132 9.31938 9.96115 9.20879 9.85977C9.09819 9.75839 8.94612 9.7077 8.75258 9.7077C8.46687 9.7077 8.22724 9.80908 8.0337 10.0118C7.84937 10.2054 7.75721 10.4911 7.75721 10.869C7.75721 11.2837 7.90006 11.6247 8.18577 11.892C8.47148 12.1593 8.90926 12.2929 9.4991 12.2929C10.135 12.2929 10.6005 12.1316 10.8954 11.809C11.1903 11.4865 11.3608 11.0579 11.4069 10.5233H12.4576C12.5036 11.1408 12.6834 11.5924 12.9967 11.8782C13.3193 12.1546 13.7018 12.2929 14.1442 12.2929C14.6419 12.2929 14.9967 12.1178 15.2087 11.7676C15.4206 11.4081 15.5266 10.9427 15.5266 10.3713C15.5266 9.69848 15.3746 9.10863 15.0704 8.60173C14.7663 8.09483 14.3377 7.67087 13.7847 7.32987C13.241 6.98886 12.605 6.73541 11.8769 6.56951C11.1581 6.3944 10.3747 6.30685 9.52675 6.30685L9.665 5.15941C10.6143 5.17784 11.4622 5.27922 12.2087 5.46355C12.9645 5.63866 13.6188 5.8875 14.1718 6.21007C14.734 6.53265 15.1994 6.91052 15.5681 7.34369C15.9368 7.76765 16.2086 8.23768 16.3838 8.7538C16.5681 9.2607 16.6602 9.79525 16.6602 10.3575C16.6602 11.0671 16.545 11.6477 16.3146 12.0994C16.0934 12.5417 15.7985 12.8689 15.4299 13.0809C15.0612 13.2837 14.6649 13.385 14.2409 13.385Z" fill="white"/>
</svg>
