<svg width="140" height="141" viewBox="0 0 140 141" fill="none" xmlns="http://www.w3.org/2000/svg">
<path d="M64.8269 21.1745C67.6933 18.5139 72.0884 18.3924 75.0975 20.8905L84.9149 29.0408C86.3125 30.2011 88.0719 30.8363 89.8884 30.8363H101.736C106.036 30.8363 109.522 34.3223 109.522 38.6225V49.8638C109.522 51.8497 110.281 53.7605 111.644 55.2054L120.188 64.2672C123.111 67.3676 122.999 72.242 119.937 75.2049L111.895 82.9848C110.378 84.4517 109.522 86.4712 109.522 88.5809V99.9581C109.522 103.993 106.44 107.359 102.421 107.714L88.0109 108.987C86.2297 109.144 84.5569 109.91 83.2736 111.155L75.2599 118.932C72.2392 121.863 67.4358 121.863 64.4151 118.932L56.3704 111.125C55.106 109.898 53.463 109.136 51.7096 108.964L38.7761 107.693C35.1673 107.338 32.281 104.539 31.8158 100.943L30.4505 90.3897C30.2561 88.887 29.6275 87.4738 28.6418 86.3231L19.0451 75.1205C16.4757 72.1211 16.5588 67.6731 19.2386 64.7719L28.4163 54.8356C29.5441 53.6145 30.2516 52.0646 30.4352 50.4125L31.8409 37.7626C32.2791 33.8194 35.6121 30.8363 39.5796 30.8363H51.3609C53.3257 30.8363 55.2179 30.0934 56.658 28.7568L64.8269 21.1745Z" stroke="#E30713" stroke-width="0.583972"/>
<path d="M27.8019 51.5748C26.9885 48.0139 28.9427 44.4022 32.3684 43.1349L43.5454 39.0002C45.1366 38.4116 46.472 37.2851 47.3203 35.8158L52.853 26.2329C54.8611 22.7546 59.3088 21.5629 62.787 23.571L71.8795 28.8206C73.4858 29.748 75.3857 30.0266 77.1906 29.5994L88.5103 26.9201C92.3832 26.0034 96.2736 28.3702 97.2399 32.2311L99.7772 42.3688C100.256 44.2803 101.489 45.9158 103.196 46.901L112.398 52.2141C115.662 54.0982 116.945 58.1633 115.355 61.5799L109.656 73.83C108.951 75.3442 108.789 77.0548 109.197 78.6743L111.745 88.7877C112.705 92.5998 110.462 96.485 106.68 97.5594L96.6093 100.421C95.0265 100.871 93.6429 101.844 92.6848 103.181L86.1264 112.338C83.9313 115.402 79.7582 116.281 76.5132 114.363L70.0876 110.564C68.4428 109.591 66.4813 109.305 64.6272 109.767L51.0744 113.147C47.0542 114.149 43.0103 111.595 42.1876 107.534L40.0551 97.008C39.6589 95.0521 38.4763 93.345 36.7845 92.2866L26.5229 85.8674C23.2029 83.7905 22.1237 79.4575 24.0818 76.066L29.3284 66.9787C30.2459 65.3895 30.5287 63.5121 30.12 61.7231L27.8019 51.5748Z" stroke="#E30713" stroke-width="0.545417"/>
<rect x="31.1806" y="31.0166" width="77.6394" height="77.6394" rx="38.8197" fill="white"/>
<rect x="31.1806" y="31.0166" width="77.6394" height="77.6394" rx="38.8197" stroke="url(#paint0_linear_320_851)" stroke-width="4.22825"/>
<rect x="49.1401" y="65.1473" width="2.8139" height="9.37967" rx="1.40695" fill="url(#paint1_linear_320_851)"/>
<rect x="55.6245" y="60.2706" width="2.8139" height="19.1328" rx="1.40695" fill="url(#paint2_linear_320_851)"/>
<rect x="62.1089" y="54.8292" width="2.8139" height="30.0149" rx="1.40695" fill="url(#paint3_linear_320_851)"/>
<rect x="68.5935" y="48.0459" width="2.8139" height="43.5819" rx="1.40695" fill="url(#paint4_linear_320_851)"/>
<rect x="75.0779" y="54.8292" width="2.8139" height="30.0149" rx="1.40695" fill="url(#paint5_linear_320_851)"/>
<rect x="81.5623" y="60.2706" width="2.8139" height="19.1328" rx="1.40695" fill="url(#paint6_linear_320_851)"/>
<rect x="88.0469" y="65.1473" width="2.8139" height="9.37967" rx="1.40695" fill="url(#paint7_linear_320_851)"/>
<defs>
<linearGradient id="paint0_linear_320_851" x1="70.0003" y1="33.1307" x2="70.0003" y2="106.542" gradientUnits="userSpaceOnUse">
<stop stop-color="#E30713"/>
<stop offset="1" stop-color="#710000"/>
</linearGradient>
<linearGradient id="paint1_linear_320_851" x1="49.3713" y1="66.3215" x2="53.9122" y2="71.2068" gradientUnits="userSpaceOnUse">
<stop stop-color="#FF9FA4"/>
<stop offset="1" stop-color="#E30713"/>
</linearGradient>
<linearGradient id="paint2_linear_320_851" x1="55.8557" y1="62.6657" x2="63.5203" y2="66.7082" gradientUnits="userSpaceOnUse">
<stop stop-color="#FF9FA4"/>
<stop offset="1" stop-color="#E30713"/>
</linearGradient>
<linearGradient id="paint3_linear_320_851" x1="62.3401" y1="58.5865" x2="71.1419" y2="61.5458" gradientUnits="userSpaceOnUse">
<stop stop-color="#FF9FA4"/>
<stop offset="1" stop-color="#E30713"/>
</linearGradient>
<linearGradient id="paint4_linear_320_851" x1="68.8247" y1="53.5015" x2="78.1229" y2="55.6545" gradientUnits="userSpaceOnUse">
<stop stop-color="#FF9FA4"/>
<stop offset="1" stop-color="#E30713"/>
</linearGradient>
<linearGradient id="paint5_linear_320_851" x1="75.3091" y1="58.5865" x2="84.1109" y2="61.5458" gradientUnits="userSpaceOnUse">
<stop stop-color="#FF9FA4"/>
<stop offset="1" stop-color="#E30713"/>
</linearGradient>
<linearGradient id="paint6_linear_320_851" x1="81.7934" y1="62.6657" x2="89.458" y2="66.7082" gradientUnits="userSpaceOnUse">
<stop stop-color="#FF9FA4"/>
<stop offset="1" stop-color="#E30713"/>
</linearGradient>
<linearGradient id="paint7_linear_320_851" x1="88.2781" y1="66.3215" x2="92.8189" y2="71.2068" gradientUnits="userSpaceOnUse">
<stop stop-color="#FF9FA4"/>
<stop offset="1" stop-color="#E30713"/>
</linearGradient>
</defs>
</svg>
