<svg width="21" height="21" viewBox="0 0 21 21" fill="none" xmlns="http://www.w3.org/2000/svg">
<rect x="0.379639" y="0.186155" width="20" height="20" rx="10" fill="#3A3A3A" fill-opacity="0.4"/>
<path d="M5.19051 8.66981C5.76748 8.66981 6.23839 8.78012 6.60324 9.00072C6.97657 9.21284 7.25233 9.4886 7.43051 9.828C7.61718 10.1589 7.71051 10.5068 7.71051 10.8716C7.71051 11.211 7.65536 11.5122 7.54506 11.7753C7.43476 12.0383 7.299 12.2292 7.13779 12.348L6.8196 12.1825H13.2723V13.0735H6.45051L6.08142 12.4116C6.25112 12.2419 6.38688 12.0553 6.4887 11.8516C6.59051 11.6395 6.64142 11.3765 6.64142 11.0625C6.64142 10.6044 6.51839 10.2395 6.27233 9.968C6.02627 9.69648 5.66566 9.56072 5.19051 9.56072C4.89354 9.56072 4.63476 9.62436 4.41415 9.75163C4.20203 9.8789 4.03657 10.0528 3.91779 10.2735C3.80748 10.4856 3.75233 10.7231 3.75233 10.9862C3.75233 11.2747 3.81173 11.5419 3.93051 11.788C4.0493 12.0256 4.24021 12.2377 4.50324 12.4244L3.91779 13.1625C3.55294 12.908 3.25597 12.5983 3.02688 12.2335C2.79779 11.8686 2.68324 11.4444 2.68324 10.9607C2.68324 10.511 2.78506 10.1165 2.98869 9.77709C3.20082 9.42921 3.49354 9.15769 3.86688 8.96254C4.24869 8.76739 4.68991 8.66981 5.19051 8.66981ZM13.7687 5.86981C14.422 5.86981 15.0032 5.97587 15.5123 6.188C16.0214 6.40012 16.4541 6.7183 16.8105 7.14254C17.1754 7.5583 17.4511 8.07587 17.6378 8.69527C17.8245 9.30618 17.9178 10.0189 17.9178 10.8335C17.9178 11.4019 17.8499 11.9916 17.7141 12.6025C17.5869 13.2135 17.379 13.8074 17.0905 14.3844C16.8105 14.9698 16.4414 15.5001 15.9832 15.9753L15.1814 15.3389C15.5632 14.9316 15.8729 14.4862 16.1105 14.0025C16.3481 13.5189 16.522 13.0098 16.6323 12.4753C16.7426 11.9322 16.7978 11.3765 16.7978 10.808C16.7978 10.2989 16.7469 9.80678 16.6451 9.33163C16.5432 8.848 16.3735 8.41527 16.136 8.03345C15.8984 7.65163 15.5845 7.35042 15.1942 7.12981C14.8038 6.90072 14.316 6.78618 13.7305 6.78618C13.0432 6.78618 12.4705 6.97284 12.0123 7.34618C11.5626 7.71951 11.2232 8.24981 10.9941 8.93709C10.7735 9.61587 10.6632 10.4135 10.6632 11.3298C10.6632 11.525 10.6675 11.7159 10.676 11.9025C10.6845 12.0807 10.6972 12.2547 10.7141 12.4244C10.7141 12.4668 10.7141 12.5092 10.7141 12.5516C10.7226 12.5856 10.7311 12.6238 10.7396 12.6662C10.782 13.2516 10.8838 13.7225 11.0451 14.0789C11.2148 14.4353 11.4141 14.6941 11.6432 14.8553C11.8808 15.0165 12.1226 15.0971 12.3687 15.0971C12.6232 15.0971 12.8057 15.0122 12.916 14.8425C12.9669 14.7662 13.0051 14.6644 13.0305 14.5371C13.056 14.4098 13.0687 14.2401 13.0687 14.028V7.90618H14.176V13.7862C14.176 14.2019 14.1378 14.5371 14.0614 14.7916C13.9935 15.0547 13.8832 15.2753 13.7305 15.4535C13.5863 15.6147 13.4038 15.7419 13.1832 15.8353C12.9711 15.9286 12.7123 15.9753 12.4069 15.9753C11.8554 15.9753 11.3632 15.8013 10.9305 15.4535C10.4978 15.1141 10.1584 14.5922 9.91233 13.888C9.66627 13.1838 9.54324 12.3013 9.54324 11.2407C9.54324 10.4347 9.63233 9.70072 9.81051 9.0389C9.99718 8.37709 10.2687 7.81284 10.6251 7.34618C10.9899 6.87103 11.4311 6.50618 11.9487 6.25163C12.4748 5.99709 13.0814 5.86981 13.7687 5.86981Z" fill="white"/>
</svg>
