<svg width="23" height="23" viewBox="0 0 23 23" fill="none" xmlns="http://www.w3.org/2000/svg">
<rect x="0.869873" y="0.406036" width="21.7244" height="21.7244" rx="10.8622" fill="#3A3A3A" fill-opacity="0.4"/>
<path d="M15.4701 16.9537L14.06 16.2487C14.318 15.8893 14.4194 15.5897 14.3641 15.3501C14.318 15.1197 14.1153 14.9031 13.7558 14.7003L10.8803 13.2902C10.2628 13.0045 9.75131 12.6082 9.34579 12.1013C8.94027 11.5944 8.73751 10.9723 8.73751 10.235V6.46088L9.19372 6.65442L10.2444 7.49772V11.8386L13.5899 13.4423C14.1798 13.7188 14.6452 13.9768 14.9862 14.2165C15.3272 14.4561 15.5715 14.6957 15.7189 14.9354C15.8756 15.175 15.9539 15.4376 15.9539 15.7234C15.9539 15.9538 15.9079 16.1704 15.8157 16.3731C15.7328 16.5851 15.6175 16.7786 15.4701 16.9537ZM12.7605 12.5437L12.1107 11.5483L13.1476 10.9124V6.46088L13.5899 6.65442L14.6544 7.49772V9.41934C14.6544 10.0553 14.5991 10.5714 14.4885 10.9677C14.3872 11.3548 14.1982 11.6681 13.9217 11.9078C13.6545 12.1382 13.2674 12.3502 12.7605 12.5437ZM7.78361 6.93092L7.24445 6.12909L7.42417 5.742H15.6775L16.2166 6.55765L16.0369 6.93092H7.78361Z" fill="white"/>
</svg>
