<svg width="23" height="23" viewBox="0 0 23 23" fill="none" xmlns="http://www.w3.org/2000/svg">
<rect x="0.869873" y="0.837845" width="21.7244" height="21.7244" rx="10.8622" fill="#3A3A3A" fill-opacity="0.4"/>
<path d="M11.6165 16.6449L10.8285 15.9122L13.4967 13.3823V7.05063H12.999L13.0266 6.05526H17.0358V7.05063H14.6856V13.7141L11.6165 16.6449ZM9.63962 13.88C9.15115 13.88 8.70415 13.7602 8.29863 13.5205C7.89311 13.2809 7.57054 12.9076 7.33091 12.4007C7.1005 11.8846 6.9853 11.221 6.9853 10.41C6.9853 9.70034 7.1005 9.08284 7.33091 8.55751C7.56132 8.03217 7.87468 7.5944 8.27098 7.24417C8.56591 6.9769 8.90231 6.7557 9.28018 6.58059C9.65805 6.40548 10.105 6.27645 10.6212 6.1935C11.1373 6.10134 11.741 6.05526 12.4322 6.05526H13.2202V7.05063H12.2663C11.6764 7.05063 11.1834 7.08749 10.7871 7.16122C10.3908 7.22574 10.0636 7.3179 9.80551 7.43772C9.55667 7.55753 9.34009 7.70038 9.15576 7.86628C8.80553 8.17964 8.53826 8.55751 8.35393 8.9999C8.1696 9.44228 8.07744 9.94458 8.07744 10.5068C8.07744 11.0782 8.14656 11.5436 8.28481 11.9031C8.43227 12.2625 8.62582 12.5252 8.86544 12.6911C9.11428 12.857 9.39538 12.9399 9.70874 12.9399C9.94837 12.9399 10.1557 12.8892 10.3308 12.7878C10.506 12.6772 10.6442 12.5206 10.7456 12.3178C10.847 12.115 10.8977 11.8662 10.8977 11.5713C10.8977 11.1104 10.7778 10.7602 10.5382 10.5206C10.2986 10.2718 9.98984 10.1473 9.61197 10.1473C9.24331 10.1473 8.8977 10.2441 8.57512 10.4377C8.25255 10.6312 7.95763 10.8754 7.69035 11.1704L7.48298 10.2856C7.75947 9.96301 8.10048 9.70034 8.506 9.49758C8.92074 9.2856 9.35391 9.17961 9.80551 9.17961C10.4691 9.17961 11.0036 9.38238 11.4092 9.7879C11.8239 10.1934 12.0313 10.7418 12.0313 11.433C12.0313 11.9399 11.9345 12.3777 11.741 12.7464C11.5474 13.115 11.2709 13.3961 10.9115 13.5897C10.5613 13.7832 10.1373 13.88 9.63962 13.88Z" fill="white"/>
</svg>
