<svg width="21" height="21" viewBox="0 0 21 21" fill="none" xmlns="http://www.w3.org/2000/svg">
<rect x="0.379639" y="0.617966" width="20" height="20" rx="10" fill="#3A3A3A" fill-opacity="0.4"/>
<path d="M12.0282 14.498C11.621 14.498 11.2646 14.4216 10.9591 14.2689C10.6622 14.1162 10.3864 13.904 10.1319 13.6325C9.87733 13.361 9.61006 13.0428 9.33006 12.678C9.084 12.3386 8.87188 12.0925 8.69369 11.9398C8.51551 11.7871 8.29915 11.7107 8.0446 11.7107C7.80703 11.7107 7.60763 11.7871 7.44642 11.9398C7.29369 12.0925 7.21733 12.3174 7.21733 12.6144C7.21733 12.8774 7.29794 13.098 7.45915 13.2762C7.62885 13.4544 7.85794 13.5434 8.14642 13.5434C8.43491 13.5434 8.67248 13.4586 8.85915 13.2889C9.0543 13.1192 9.21976 12.8731 9.35551 12.5507L10.0301 13.3144C9.86885 13.5434 9.69915 13.7471 9.52097 13.9253C9.34279 14.1034 9.13915 14.2434 8.91006 14.3453C8.68945 14.4471 8.41369 14.498 8.08279 14.498C7.63309 14.498 7.27248 14.4047 7.00097 14.218C6.72945 14.0313 6.53006 13.7937 6.40279 13.5053C6.284 13.2083 6.2246 12.9028 6.2246 12.5889C6.2246 12.2156 6.30521 11.8931 6.46642 11.6216C6.62763 11.3501 6.844 11.138 7.11551 10.9853C7.38703 10.8325 7.68824 10.7562 8.01915 10.7562C8.3246 10.7562 8.59612 10.8113 8.83369 10.9216C9.07127 11.0234 9.3046 11.1889 9.53369 11.418C9.76279 11.6386 10.0131 11.9313 10.2846 12.2962C10.5137 12.5931 10.7173 12.8307 10.8955 13.0089C11.0737 13.1871 11.2561 13.3144 11.4428 13.3907C11.6295 13.4586 11.8458 13.4925 12.0919 13.4925C12.5161 13.4925 12.8385 13.3568 13.0591 13.0853C13.2882 12.8137 13.4028 12.3853 13.4028 11.7998C13.4028 11.3247 13.3222 10.8622 13.161 10.4125C13.0082 9.96284 12.7919 9.53859 12.5119 9.13981C12.2319 8.73253 11.9052 8.35496 11.5319 8.00708C11.1585 7.65072 10.7513 7.32829 10.3101 7.03981C9.86885 6.75132 9.41066 6.50526 8.93551 6.30162L9.41915 5.28344C9.88582 5.47859 10.3567 5.7289 10.8319 6.03435C11.3155 6.33132 11.7737 6.68344 12.2064 7.09071C12.6391 7.4895 13.0252 7.93496 13.3646 8.42708C13.704 8.91072 13.9713 9.43678 14.1664 10.0053C14.3616 10.5737 14.4591 11.1804 14.4591 11.8253C14.4591 12.3853 14.3616 12.8647 14.1664 13.2634C13.9798 13.6622 13.704 13.9677 13.3391 14.1798C12.9828 14.3919 12.5458 14.498 12.0282 14.498Z" fill="white"/>
</svg>
